<svg xmlns="http://www.w3.org/2000/svg" width="437.199" height="223.287"><g fill="#e8ebf5"><path d="M367.953 139.332c3.872-.61 7.21-2.91 9.175-6.298 3.5-6.17 1.357-14-4.77-17.464-2.497-1.428-5.462-1.96-8.306-1.53-3.872.606-7.212 2.912-9.176 6.29-1.72 2.97-2.15 6.404-1.244 9.718.898 3.303 3.05 6.055 6.042 7.722 2.47 1.43 5.416 1.985 8.28 1.562zM404.638 136.156c-3.61 0-7.006 1.64-9.26 4.472-4.088 5.106-3.21 12.54 1.88 16.59 2.095 1.667 4.723 2.566 7.38 2.566 3.63 0 7.024-1.64 9.28-4.472 4.058-5.08 3.207-12.514-1.88-16.563-2.097-1.668-4.725-2.594-7.4-2.594zM278.25 184.338c4.378 0 8.437-1.958 11.14-5.345 4.855-6.112 3.817-15.028-2.31-19.87-2.488-1.96-5.62-3.043-8.8-3.043-4.38 0-8.41 1.93-11.114 5.32-2.357 2.96-3.423 6.666-3.002 10.423.43 3.73 2.31 7.118 5.285 9.446 2.487 1.983 5.62 3.068 8.8 3.068zM388.297 218.047c4.35 0 8.41-1.958 11.112-5.345 2.328-2.937 3.422-6.668 2.974-10.425-.43-3.73-2.31-7.09-5.257-9.446-2.516-1.983-5.65-3.068-8.83-3.068-4.378 0-8.437 1.932-11.112 5.318-4.883 6.112-3.873 15.056 2.282 19.897 2.488 1.985 5.622 3.07 8.83 3.07zM303.608 155.02c5.968 0 11.515-2.67 15.2-7.3 3.208-4.05 4.668-9.076 4.06-14.236-.59-5.107-3.134-9.68-7.193-12.855-3.396-2.708-7.69-4.183-12.01-4.183-5.95 0-11.487 2.642-15.172 7.272-3.237 4.05-4.668 9.076-4.088 14.183.58 5.133 3.152 9.71 7.184 12.91 3.394 2.7 7.67 4.208 12.018 4.208zM333.288 207.067c4.564 0 8.773-2.012 11.59-5.557 2.496-3.123 3.58-6.96 3.132-10.9-.458-3.917-2.394-7.41-5.49-9.844-2.6-2.037-5.865-3.2-9.204-3.2-4.537 0-8.783 2.036-11.59 5.58-5.07 6.378-4.012 15.665 2.386 20.72 2.572 2.063 5.855 3.2 9.176 3.2zM333.232 84.486c5.443 0 10.504-2.436 13.9-6.702 2.946-3.696 4.274-8.308 3.74-13.012-.56-4.686-2.89-8.868-6.603-11.8-3.107-2.49-7.035-3.835-11.01-3.835-5.463 0-10.533 2.427-13.928 6.664-6.07 7.618-4.8 18.764 2.872 24.85 3.124 2.455 7.024 3.836 11.028 3.836zM195.498 130.384c5.444 0 10.532-2.427 13.9-6.665 2.974-3.707 4.293-8.337 3.74-13.04-.532-4.687-2.86-8.87-6.574-11.8-3.134-2.464-7.062-3.836-11.038-3.836-5.462 0-10.532 2.427-13.927 6.664-6.044 7.617-4.772 18.763 2.87 24.84 3.152 2.464 7.053 3.836 11.028 3.836zM228.068 97.424c5.303.075 10.13-2.754 12.655-7.384 3.63-6.85 1.057-15.346-5.677-18.977-2.096-1.13-4.266-1.66-6.473-1.717-5.304-.075-10.158 2.725-12.674 7.355-3.64 6.937-1.04 15.43 5.75 19.053 1.993 1.055 4.192 1.615 6.418 1.67zM255.203 159.943c4.985 0 9.625-2.222 12.73-6.112 2.704-3.36 3.9-7.592 3.424-11.906-.505-4.286-2.657-8.123-6.052-10.793-2.834-2.277-6.445-3.518-10.102-3.518-4.986 0-9.597 2.22-12.702 6.137-2.684 3.36-3.9 7.593-3.395 11.88.505 4.31 2.63 8.148 6.043 10.82 2.843 2.276 6.426 3.493 10.055 3.493zM314.3 29.292c0 6.926-5.65 12.564-12.628 12.564-6.95 0-12.6-5.638-12.6-12.564 0-6.936 5.65-12.574 12.6-12.574 6.978 0 12.628 5.638 12.628 12.574zM226.955 223.285c5.462 0 10.532-2.434 13.927-6.694 2.947-3.676 4.266-8.307 3.742-13.016-.56-4.684-2.89-8.864-6.604-11.8-3.105-2.488-7.034-3.838-11.037-3.838-5.435 0-10.504 2.435-13.9 6.668-6.07 7.62-4.798 18.76 2.862 24.845 3.134 2.46 7.034 3.835 11.01 3.835zM260.086 47.568c3.63 0 6.996-1.614 9.278-4.443 4.06-5.106 3.19-12.564-1.936-16.615-2.067-1.643-4.695-2.567-7.342-2.567-3.667 0-7.034 1.643-9.307 4.5-4.033 5.077-3.19 12.517 1.935 16.558 2.067 1.672 4.686 2.568 7.37 2.568zM386.52 106.758c3.9-.606 7.21-2.912 9.176-6.29 3.498-6.17 1.356-14.003-4.77-17.466-2.498-1.428-5.445-1.96-8.307-1.54-3.873.616-7.213 2.912-9.177 6.3-1.72 2.97-2.15 6.404-1.244 9.71.897 3.312 3.048 6.057 6.042 7.727 2.497 1.428 5.434 1.988 8.278 1.558zM276.314 103.557c3.817 0 7.37-1.69 9.737-4.677 4.24-5.293 3.34-13.078-1.99-17.306-2.2-1.746-4.93-2.726-7.718-2.726-3.816 0-7.37 1.69-9.737 4.686-4.237 5.31-3.34 13.115 2.02 17.353 2.17 1.717 4.902 2.67 7.69 2.67z"/><path d="M182.693 223.285H74.9C34.985 223.285 0 188.28 0 148.38c0-33.36 19.388-62.046 48.35-71.52 15.28-26.482 41.908-42.276 71.3-42.276 4.395 0 8.614.336 12.907 1.083C151.18 12.967 177.25 0 204.28 0c2.125 0 10.955.26 15.173 1.587 7.137 2.193 11.187 9.866 9.064 17.09-1.693 5.798-7.025 9.85-12.964 9.85-1.198 0-2.386-.16-3.555-.477-.402-.056-4.452-.504-7.717-.504-21.325 0-41.398 11.425-55.11 31.373-2.498 3.602-6.82 5.852-11.3 5.852-1.225 0-2.395-.187-3.508-.504-5.19-1.484-9.728-2.147-14.713-2.147-21.28 0-40 12.2-50.08 32.653-1.83 3.734-5.2 6.375-9.204 7.28-19.6 4.34-33.286 23.384-33.286 46.328 0 24.792 22.783 47.362 47.82 47.362h107.793c7.474 0 13.553 6.19 13.553 13.785 0 7.567-6.08 13.758-13.553 13.758zM360.123 193.942c2.92 2.302 7.222 1.826 9.523-1.084 2.338-2.91 1.833-7.17-1.086-9.5-2.918-2.3-7.183-1.825-9.522 1.085-2.33 2.938-1.824 7.197 1.085 9.5zM291.832 215.374c0 3.837-3.133 6.96-6.978 6.96-3.872 0-6.996-3.123-6.996-6.96 0-3.836 3.124-6.96 6.996-6.96 3.845 0 6.978 3.124 6.978 6.96zM420.764 131.075c3.02 0 5.827-1.373 7.716-3.725 1.62-2.016 2.33-4.583 2.04-7.197-.29-2.595-1.563-4.9-3.63-6.543-1.758-1.372-3.928-2.138-6.126-2.138-3.03 0-5.837 1.344-7.727 3.678-3.367 4.23-2.647 10.427 1.572 13.787 1.748 1.372 3.918 2.138 6.154 2.138zM426.675 174.998c3.05 0 5.865-1.35 7.745-3.73 1.59-1.986 2.33-4.552 2.04-7.17-.29-2.594-1.59-4.922-3.63-6.563-1.75-1.376-3.93-2.143-6.155-2.143-3.002 0-5.81 1.35-7.69 3.704-3.375 4.234-2.655 10.398 1.563 13.76 1.75 1.375 3.93 2.142 6.127 2.142zM355.38 223.285c3.022 0 5.838-1.35 7.718-3.73 1.618-2.01 2.357-4.578 2.067-7.17-.29-2.62-1.618-4.95-3.657-6.59-1.75-1.35-3.93-2.116-6.127-2.116-3.02 0-5.836 1.35-7.716 3.704-3.32 4.233-2.628 10.37 1.562 13.732 1.778 1.43 3.957 2.17 6.155 2.17zM294.778 85.616c3.125 2.464 7.614 1.932 10.046-1.158 2.47-3.07 1.965-7.486-1.188-9.978-3.05-2.437-7.51-1.933-10 1.167-2.468 3.07-1.907 7.542 1.142 9.97zM247.27 15.794c3.134 2.492 7.615 1.932 10.056-1.14 2.442-3.07 1.936-7.485-1.197-9.968-3.05-2.436-7.53-1.932-10.028 1.13-2.432 3.098-1.88 7.542 1.17 9.978zM253.267 109.83c2.572-.393 4.798-1.933 6.098-4.182 1.113-1.96 1.413-4.23.795-6.404-.58-2.194-1.983-4.023-3.975-5.134-1.646-.924-3.61-1.297-5.49-1-2.573.393-4.77 1.906-6.07 4.155-2.312 4.042-.908 9.204 3.15 11.538 1.647.952 3.612 1.316 5.492 1.026zM223.456 142.903c2.676 2.117 6.548 1.667 8.67-1.005 2.125-2.646 1.704-6.535-.98-8.652-2.676-2.115-6.548-1.667-8.7 1.005-2.123 2.674-1.665 6.537 1.01 8.653z"/><path d="M199.268 185.476c2.946 2.328 7.21 1.826 9.522-1.112 2.33-2.91 1.852-7.144-1.085-9.472-2.92-2.328-7.22-1.825-9.522 1.085-2.34 2.937-1.834 7.17 1.085 9.5zM377.072 151.053c2.947 2.328 7.22 1.825 9.522-1.085 2.34-2.91 1.834-7.17-1.085-9.5-2.92-2.327-7.212-1.824-9.523 1.086-2.33 2.937-1.833 7.17 1.085 9.5zM294.404 200.98c2.947 2.33 7.184 1.826 9.522-1.11 2.33-2.91 1.834-7.145-1.085-9.473-2.945-2.328-7.22-1.826-9.52 1.085-2.34 2.91-1.834 7.17 1.084 9.498zM330.126 168.542c2.947 2.302 7.22 1.826 9.522-1.112 2.34-2.91 1.862-7.143-1.085-9.47-2.918-2.303-7.183-1.827-9.522 1.083-2.328 2.91-1.823 7.17 1.086 9.5zM383.788 182.46c4.902 3.89 12.067 3.068 15.967-1.826 3.92-4.922 3.106-12.04-1.833-15.928-4.902-3.89-12.066-3.096-15.995 1.826-3.9 4.894-3.077 12.038 1.86 15.927zM425.188 147.64c3.208 2.54 7.848 1.984 10.4-1.192 2.545-3.174 2.012-7.83-1.168-10.345-3.208-2.54-7.876-2.01-10.4 1.165-2.546 3.2-2.012 7.832 1.168 10.372zM278.063 44.525c1.91 1.54 4.668 1.223 6.183-.68 1.515-1.887 1.197-4.63-.72-6.143-1.88-1.503-4.668-1.186-6.174.72-1.487 1.875-1.17 4.63.71 6.103zM359.413 104.163c1.908 1.513 4.667 1.195 6.154-.68 1.506-1.905 1.188-4.63-.692-6.17-1.908-1.476-4.667-1.16-6.183.718-1.506 1.877-1.188 4.63.72 6.133zM252.92 83.506c1.91 1.503 4.668 1.186 6.183-.72 1.488-1.875 1.17-4.628-.72-6.13-1.908-1.486-4.667-1.168-6.155.708-1.506 1.876-1.188 4.63.693 6.142zM405.405 107.104c2.095 1.643 5.116 1.297 6.79-.794 1.637-2.063 1.3-5.106-.776-6.75-2.096-1.632-5.145-1.296-6.782.767-1.646 2.09-1.3 5.115.767 6.777zM233.24 61.31c3.022 0 5.837-1.355 7.698-3.707 3.368-4.238 2.648-10.4-1.57-13.76-1.722-1.353-3.9-2.146-6.128-2.146-3.02 0-5.808 1.354-7.688 3.706-3.396 4.256-2.676 10.426 1.534 13.787 1.777 1.372 3.956 2.12 6.154 2.12zM340.078 151.397c2.994 0 5.81-1.35 7.69-3.704 3.338-4.234 2.656-10.4-1.563-13.76-1.75-1.4-3.956-2.142-6.155-2.142-3.02 0-5.808 1.35-7.688 3.704-1.647 2.064-2.395 4.63-2.068 7.25.318 2.62 1.61 4.95 3.705 6.563 1.673 1.322 3.852 2.09 6.078 2.09zM229.686 125.493l.767-.215c2.47-.71 4.518-2.352 5.79-4.63 1.244-2.268 1.506-4.89.795-7.374-1.515-4.714-6.024-7.514-10.794-6.805l-.505.083-.824.205c-5.117 1.587-8.007 6.964-6.5 12.042 1.383 4.574 5.994 7.486 10.765 6.777l.506-.084zM309.258 180.898c3.05 0 5.865-1.35 7.717-3.704 1.646-2.09 2.385-4.657 2.067-7.276-.318-2.593-1.618-4.895-3.685-6.51-1.693-1.35-3.873-2.09-6.1-2.09-3.002 0-5.808 1.324-7.688 3.678-3.377 4.286-2.657 10.452 1.617 13.812 1.693 1.35 3.873 2.09 6.07 2.09zM229.452 175.924c3.02 0 5.856-1.376 7.717-3.73 1.617-2.012 2.356-4.578 2.038-7.198-.29-2.592-1.59-4.894-3.63-6.535-1.73-1.375-3.9-2.142-6.126-2.142-3.03 0-5.837 1.35-7.698 3.705-1.637 2.036-2.385 4.603-2.095 7.197.298 2.62 1.598 4.947 3.665 6.588 1.722 1.35 3.92 2.116 6.127 2.116zM298.997 47.942c-3.03 0-5.837 1.353-7.698 3.706-1.647 2.063-2.386 4.63-2.068 7.224.318 2.595 1.59 4.92 3.657 6.535 1.73 1.372 3.9 2.12 6.107 2.12 3.02 0 5.855-1.355 7.717-3.707 1.618-2.016 2.357-4.583 2.067-7.17-.29-2.594-1.59-4.946-3.656-6.59-1.778-1.38-3.93-2.118-6.127-2.118zM207.434 46.44c-3.022 0-5.837 1.343-7.717 3.695-1.647 2.063-2.357 4.63-2.067 7.253.318 2.595 1.618 4.92 3.685 6.534 1.72 1.354 3.872 2.12 6.1 2.12 3.02 0 5.835-1.354 7.715-3.734 1.6-1.98 2.367-4.546 2.05-7.14-.272-2.624-1.573-4.95-3.64-6.59-1.777-1.402-3.92-2.14-6.126-2.14zM393.787 112.5c-4.723 0-8.54 3.518-8.7 8.204-.214 4.714 3.528 8.84 8.298 8.84 5.07 0 8.886-3.49 9.073-8.177.103-2.222-.72-4.415-2.282-6.142-1.562-1.69-3.76-2.67-6.1-2.745l-.29.02zM237.113 34.155c2.385.85 5.07-.346 5.837-2.773.85-2.38-.347-5.03-2.732-5.9-2.47-.904-5.088.42-5.91 2.8-.91 2.382.345 4.977 2.805 5.873zM185.34 171.215c1.702.608 3.64-.265 4.19-2.012.608-1.693-.26-3.598-1.964-4.233-1.777-.635-3.657.317-4.237 2.01-.665 1.72.233 3.6 2.01 4.235zM270.13 71.94c2.443 0 4.753-.877 6.586-2.482 1.824-1.596 3.05-3.977 3.237-6.59.178-2.595-.664-5.19-2.395-7.15-1.908-2.166-4.583-3.38-7.427-3.38-2.384 0-4.685.868-6.462 2.427-4.06 3.575-4.49 9.764-.935 13.843 1.89 2.138 4.592 3.333 7.398 3.333zM252.715 61.01c1.085 1.25.973 3.174-.328 4.266-1.216 1.14-3.152 1-4.265-.243-1.085-1.24-.982-3.2.262-4.284 1.272-1.112 3.19-.98 4.33.26zM353.735 88.453c1.113 1.242 1.01 3.174-.29 4.257-1.244 1.11-3.152 1.008-4.293-.26-1.067-1.243-.983-3.175.29-4.286 1.244-1.092 3.18-.98 4.293.29zM294.666 104.798c1.113 1.28 1.01 3.183-.29 4.294-1.216 1.11-3.152 1-4.265-.27-1.093-1.242-.98-3.174.263-4.285 1.244-1.083 3.18-.98 4.293.26zM311.007 108.72c3.742 0 7.212-2.148 8.858-5.51 1.14-2.323 1.3-5.077.42-7.532-.897-2.492-2.702-4.47-5.087-5.61-1.273-.616-2.732-.933-4.19-.933-3.79 0-7.27 2.203-8.887 5.61-1.112 2.25-1.27 4.9-.392 7.41.842 2.466 2.675 4.5 5.06 5.64 1.245.606 2.732.924 4.22.924zM249.16 187.698c1.88 0 3.658-.846 4.827-2.33 1.03-1.295 1.506-2.882 1.32-4.523-.207-1.64-1.03-3.12-2.33-4.128-1.067-.846-2.442-1.322-3.817-1.322-1.89 0-3.638.846-4.835 2.33-1.03 1.295-1.478 2.882-1.29 4.523.176 1.64 1 3.095 2.3 4.1 1.085.874 2.44 1.35 3.825 1.35zM201.363 84.14c1.88 0 3.657-.85 4.826-2.305 1.038-1.297 1.487-2.912 1.3-4.546-.187-1.643-1.01-3.1-2.31-4.136-1.086-.84-2.442-1.297-3.817-1.297-1.88 0-3.657.85-4.827 2.305-1.038 1.298-1.515 2.913-1.3 4.556.187 1.614 1.01 3.06 2.283 4.097 1.084.85 2.46 1.326 3.843 1.326zM339.31 122.926c4.35 0 8.4-1.96 11.114-5.368 4.873-6.086 3.844-15-2.255-19.845-2.526-1.988-5.65-3.07-8.84-3.07-4.368 0-8.428 1.96-11.14 5.348-2.357 2.932-3.414 6.638-2.993 10.4.42 3.724 2.31 7.112 5.303 9.465 2.47 1.96 5.622 3.07 8.81 3.07zM206.133 163.542c3.873-.583 7.22-2.91 9.176-6.298 3.507-6.165 1.356-13.97-4.77-17.463-2.517-1.4-5.464-1.957-8.307-1.507-3.873.582-7.212 2.884-9.176 6.27-1.72 2.964-2.142 6.43-1.244 9.738.907 3.308 3.05 6.033 6.052 7.726 2.46 1.403 5.406 1.985 8.268 1.536zM247.935 121.787c1.272 1.036 3.106.793 4.088-.448 1.03-1.27.823-3.1-.45-4.1-1.28-.98-3.105-.764-4.087.477-1.01 1.27-.795 3.118.45 4.07zM409.062 173.358c1.272 1.03 3.077.793 4.088-.45 1.01-1.27.795-3.096-.45-4.102-1.28-1.005-3.105-.793-4.115.476-1.01 1.245-.795 3.097.477 4.076zM360.554 174.125c3.526 0 6.79-1.56 8.99-4.286 3.927-4.976 3.104-12.146-1.835-16.062-2.04-1.588-4.556-2.46-7.128-2.46-3.527 0-6.79 1.56-8.998 4.312-3.892 4.895-3.068 12.092 1.86 16.008 2.04 1.613 4.566 2.487 7.11 2.487zM264.22 206.537c4.246 3.334 10.4 2.593 13.797-1.588 3.31-4.26 2.647-10.4-1.572-13.732-4.265-3.36-10.448-2.7-13.815 1.56-3.34 4.207-2.63 10.346 1.59 13.76zM331.903 222.44c1.73 1.348 4.22 1.057 5.603-.663 1.347-1.72 1.085-4.207-.636-5.556-1.73-1.375-4.246-1.084-5.603.636-1.347 1.72-1.085 4.207.636 5.583zM178.792 140.548c1.722 1.35 4.22 1.06 5.594-.635 1.356-1.746 1.085-4.233-.636-5.583-1.72-1.348-4.247-1.084-5.594.636-1.356 1.72-1.085 4.206.636 5.582zM319.95 44.637c2.113 1.69 5.247 1.345 6.95-.793 1.664-2.12 1.318-5.246-.805-6.908-2.142-1.717-5.248-1.353-6.97.766-1.7 2.147-1.355 5.218.824 6.935zM179.485 85.01c2.114 1.67 5.247 1.325 6.94-.794 1.702-2.138 1.328-5.237-.795-6.908-2.142-1.717-5.247-1.344-6.95.775-1.693 2.137-1.347 5.208.805 6.926zM371.264 76.888c0 4.686-3.817 8.494-8.512 8.494-4.724 0-8.54-3.808-8.54-8.494s3.816-8.494 8.54-8.494c4.695 0 8.512 3.808 8.512 8.494zM166.857 104.005c0 4.686-3.816 8.494-8.512 8.494-4.695 0-8.52-3.81-8.52-8.495 0-4.677 3.825-8.485 8.52-8.485 4.696 0 8.512 3.808 8.512 8.485zM423.383 187.804c0 4.683-3.817 8.493-8.54 8.493-4.696 0-8.512-3.81-8.512-8.493s3.817-8.494 8.513-8.494c4.723 0 8.54 3.81 8.54 8.494zM322.334 214.792c0 4.683-3.797 8.493-8.51 8.493-4.697 0-8.523-3.81-8.523-8.493s3.827-8.493 8.523-8.493c4.714 0 8.51 3.81 8.51 8.492zM283.03 117.24c0 4.705-3.825 8.495-8.52 8.495-4.715 0-8.54-3.79-8.54-8.494 0-4.685 3.825-8.465 8.54-8.465 4.695 0 8.52 3.78 8.52 8.466zM253.136 221.09c2.516 1.984 6.154 1.56 8.137-.953 1.993-2.487 1.572-6.113-.926-8.096-2.516-1.958-6.154-1.535-8.137.927-1.993 2.513-1.572 6.138.926 8.122zM168.868 165.684c3.03 0 5.837-1.35 7.717-3.704 1.618-2.09 2.366-4.657 2.048-7.276-.318-2.593-1.618-4.895-3.685-6.535-1.674-1.324-3.872-2.065-6.08-2.065-3.02 0-5.808 1.323-7.69 3.678-3.394 4.286-2.655 10.45 1.592 13.81 1.702 1.35 3.872 2.09 6.098 2.09zM284.695 15c0 4.686-3.816 8.467-8.512 8.467-4.695 0-8.512-3.78-8.512-8.467 0-4.704 3.818-8.494 8.513-8.494 4.696 0 8.512 3.79 8.512 8.494z"/></g></svg>